<svg width="272" height="189" viewBox="0 0 272 189" fill="none" xmlns="http://www.w3.org/2000/svg">
<path d="M132.806 188.429C199.176 188.429 252.98 177.883 252.98 164.873C252.98 151.863 199.176 141.316 132.806 141.316C66.4357 141.316 12.6318 151.863 12.6318 164.873C12.6318 177.883 66.4357 188.429 132.806 188.429Z" fill="#C7C7C7"/>
<path d="M234.438 126.949C224.036 135.201 209.618 122.443 213.066 112.004C214.848 106.607 219.077 102.317 219.925 96.6105C220.802 90.7184 223.588 88.2282 228.141 84.6692C229.927 83.2731 230.642 80.7059 231.472 78.6117C233.04 74.659 235.383 71.3318 239.153 69.2112C243.799 66.5972 252.943 70.123 254.082 75.9803C255.465 83.0886 246.241 86.4529 243.222 91.0182C240.63 94.9365 243.075 100.097 239.278 104.343C233.571 110.721 242.618 120.869 234.438 126.949Z" fill="#88C8FC"/>
<path d="M223.543 138.994C223.327 138.994 223.144 138.829 223.124 138.61C221.282 118.321 227.463 97.7569 240.083 82.1908C240.23 82.0092 240.496 81.9816 240.677 82.129C240.858 82.2758 240.886 82.5413 240.739 82.7224C228.256 98.1197 222.141 118.463 223.964 138.534C223.985 138.766 223.814 138.971 223.582 138.992C223.569 138.993 223.556 138.994 223.543 138.994Z" fill="#29275F"/>
<path d="M229.434 113.606C226.627 117.576 224.417 122.026 219.656 122.9C212.468 124.22 203.86 131.075 204.299 140.031C204.173 158.266 231.987 157.894 234.136 144.351C235.149 137.949 236.774 135.156 243.317 134.218C247.236 133.657 248.421 130.357 249.524 126.974C250.546 125.421 252.011 124.223 253.767 123.584C256.257 122.677 259.067 123.071 261.732 122.991C264.082 122.921 266.431 122.436 268.176 120.885C269.835 119.404 270.921 117.306 271.211 114.964C271.493 112.633 270.91 110.189 269.552 108.114C268.27 106.161 266.326 104.569 264.226 103.744C261.845 102.801 259.412 102.815 257.205 103.728C254.65 104.78 252.667 106.689 250.686 108.549C250.673 108.564 250.657 108.574 250.644 108.589C248.096 110.993 244.46 111.852 240.856 110.951C236.558 109.878 232.464 109.327 229.434 113.606Z" fill="#508DD2"/>
<path d="M203.96 156.57C203.887 156.57 203.813 156.551 203.745 156.511C203.545 156.392 203.479 156.133 203.598 155.933C215.417 136.034 233.971 121.204 255.843 114.175C256.063 114.104 256.302 114.226 256.373 114.447C256.445 114.67 256.323 114.906 256.101 114.978C234.426 121.944 216.037 136.642 204.323 156.363C204.245 156.496 204.104 156.57 203.96 156.57Z" fill="#29275F"/>
<path d="M35.8113 134.492C46.2136 142.744 60.6316 129.986 57.1835 119.547C55.4009 114.15 51.172 109.86 50.3238 104.154C49.4474 98.2615 46.6608 95.7713 42.1079 92.2118C40.3225 90.8157 39.6082 88.2485 38.7773 86.1543C37.2091 82.2016 34.8657 78.8744 31.0964 76.7538C26.4502 74.1398 17.3062 77.665 16.1671 83.5229C14.7845 90.6312 24.0083 93.9955 27.0273 98.5608C29.6187 102.479 27.1741 107.64 30.9715 111.885C36.6781 118.265 27.6308 128.413 35.8113 134.492Z" fill="#508DD2"/>
<path d="M46.7053 146.537C46.6924 146.537 46.6794 146.536 46.6665 146.535C46.4342 146.514 46.2637 146.309 46.2845 146.077C48.1076 126.005 41.9932 105.662 29.5097 90.265C29.3629 90.0839 29.391 89.8184 29.5715 89.6716C29.7521 89.5248 30.0182 89.5523 30.165 89.7335C42.7858 105.301 48.9677 125.865 47.1249 146.153C47.1052 146.372 46.9207 146.537 46.7053 146.537Z" fill="#29275F"/>
<path d="M42.5656 118.735C45.3725 122.705 47.5825 127.155 52.3435 128.028C59.5317 129.349 68.1397 136.205 67.7009 145.161C67.8263 163.395 40.0118 163.023 37.8642 149.48C36.8506 143.079 35.2255 140.286 28.6825 139.347C24.7642 138.787 23.579 135.486 22.4759 132.103C21.4538 130.55 19.9885 129.353 18.233 128.714C15.7422 127.806 12.932 128.2 10.268 128.12C7.91728 128.05 5.56828 127.566 3.82397 126.014C2.16459 124.533 1.0784 122.436 0.788716 120.094C0.506341 117.762 1.08965 115.318 2.44809 113.243C3.72947 111.29 5.67403 109.699 7.77328 108.873C10.1549 107.931 12.5877 107.944 14.7944 108.858C17.3493 109.91 19.3327 111.818 21.3138 113.679C21.3267 113.693 21.3425 113.704 21.3554 113.718C23.9035 116.122 27.5401 116.981 31.1435 116.08C35.4415 115.007 39.536 114.456 42.5656 118.735Z" fill="#88C8FC"/>
<path d="M68.0386 161.699C67.8946 161.699 67.7545 161.625 67.6758 161.492C55.9622 141.771 37.5736 127.073 15.8982 120.107C15.676 120.035 15.5545 119.798 15.6259 119.576C15.6968 119.354 15.9347 119.233 16.1564 119.304C38.0281 126.333 56.5827 141.163 68.4014 161.062C68.5201 161.261 68.4543 161.521 68.254 161.64C68.1859 161.679 68.1117 161.699 68.0386 161.699Z" fill="#29275F"/>
<path d="M241.261 180.051H29.0987C26.7317 180.051 24.813 178.133 24.813 175.765V173.961H245.548V175.765C245.548 178.132 243.628 180.051 241.261 180.051Z" fill="#29275F"/>
<path d="M222.519 140.355H47.8412L24.813 173.962H245.548L222.519 140.355Z" fill="white"/>
<path d="M219.512 29.5572H50.8485C49.2364 29.5572 47.9297 30.8639 47.9297 32.476V140.355H222.431V32.476C222.431 30.8639 221.125 29.5572 219.512 29.5572Z" fill="#29275F"/>
<path d="M217.09 38.7405H53.2695V131.76H217.09V38.7405Z" fill="#67A4E9"/>
<path d="M241.261 180.473H29.0983C26.5023 180.473 24.3901 178.361 24.3901 175.765V173.962C24.3901 173.729 24.5791 173.54 24.812 173.54H245.547C245.779 173.54 245.968 173.729 245.968 173.962V175.765C245.969 178.361 243.857 180.473 241.261 180.473ZM25.2344 174.383V175.765C25.2344 177.896 26.9681 179.629 29.0988 179.629H241.261C243.392 179.629 245.125 177.896 245.125 175.765V174.383H25.2344Z" fill="#29275F"/>
<path d="M245.547 174.384H24.8127C24.6564 174.384 24.5124 174.297 24.4392 174.159C24.3661 174.02 24.3762 173.853 24.4645 173.724L47.4927 140.117C47.5715 140.002 47.7014 139.934 47.8409 139.934H222.519C222.657 139.934 222.788 140.002 222.867 140.117L245.895 173.724C245.983 173.853 245.993 174.02 245.92 174.159C245.848 174.296 245.704 174.384 245.547 174.384ZM25.6132 173.54H244.747L222.296 140.777H48.0631L25.6132 173.54Z" fill="#29275F"/>
<path d="M222.431 140.777H47.9297C47.6968 140.777 47.5078 140.588 47.5078 140.355V32.476C47.5078 30.6338 49.0063 29.1353 50.8485 29.1353H219.512C221.355 29.1353 222.854 30.6338 222.854 32.476V140.355C222.853 140.588 222.664 140.777 222.431 140.777ZM48.3516 139.933H222.009V32.476C222.009 31.099 220.889 29.9791 219.512 29.9791H50.8485C49.4715 29.9791 48.3516 31.099 48.3516 32.476V139.933Z" fill="#29275F"/>
<path d="M217.09 132.181H53.2695C53.0367 132.181 52.8477 131.992 52.8477 131.759V38.7405C52.8477 38.5077 53.0367 38.3187 53.2695 38.3187H217.09C217.323 38.3187 217.512 38.5077 217.512 38.7405V131.759C217.512 131.992 217.323 132.181 217.09 132.181ZM53.6914 131.338H216.668V39.1624H53.6914V131.338Z" fill="#29275F"/>
<path d="M180.06 135.611H90.2993V139.689H180.06V135.611Z" fill="white"/>
<path d="M127.57 34.047C127.57 35.5658 126.338 36.7965 124.82 36.7965C123.302 36.7965 122.071 35.5658 122.071 34.047C122.071 32.5283 123.302 31.2975 124.82 31.2975C126.338 31.2975 127.57 32.5283 127.57 34.047Z" fill="#67A4E9"/>
<path d="M166.832 171.666H103.528C103.372 171.666 103.228 171.579 103.155 171.441C103.081 171.303 103.092 171.135 103.18 171.006L109.784 161.368C109.863 161.254 109.993 161.185 110.132 161.185H160.228C160.367 161.185 160.498 161.254 160.576 161.368L167.18 171.006C167.268 171.135 167.278 171.303 167.205 171.441C167.132 171.579 166.989 171.666 166.832 171.666ZM104.329 170.822H166.032L160.006 162.028H110.355L104.329 170.822Z" fill="#29275F"/>
<path d="M70.7353 149.363H59.0612C58.9116 149.363 58.7726 149.284 58.6972 149.155C58.6219 149.026 58.6202 148.866 58.6939 148.735L61.6892 143.403C61.764 143.271 61.9046 143.188 62.0571 143.188H73.2728C73.4173 143.188 73.5518 143.262 73.6294 143.385C73.7064 143.507 73.7154 143.66 73.6536 143.791L71.1161 149.123C71.0464 149.27 70.8984 149.363 70.7353 149.363ZM59.7823 148.52H70.4693L72.6051 144.032H62.304L59.7823 148.52Z" fill="#29275F"/>
<path d="M90.8917 149.363H79.2175C79.0763 149.363 78.9453 149.293 78.8665 149.176C78.7883 149.059 78.7737 148.911 78.8272 148.781L81.0322 143.449C81.0974 143.291 81.2515 143.188 81.422 143.188H92.6382C92.7732 143.188 92.9003 143.253 92.9797 143.362C93.059 143.472 93.0809 143.612 93.0387 143.741L91.2916 149.073C91.2359 149.247 91.0745 149.363 90.8917 149.363ZM79.8487 148.52H90.5862L92.0566 144.032H81.7049L79.8487 148.52Z" fill="#29275F"/>
<path d="M111.047 149.363H99.3731C99.2421 149.363 99.1183 149.303 99.039 149.199C98.9591 149.095 98.9315 148.96 98.9653 148.834L100.38 143.501C100.429 143.316 100.597 143.187 100.788 143.187H112.004C112.129 143.187 112.248 143.243 112.327 143.339C112.408 143.435 112.441 143.561 112.419 143.684L111.462 149.016C111.426 149.218 111.252 149.363 111.047 149.363ZM99.9221 148.52H110.695L111.5 144.032H101.113L99.9221 148.52Z" fill="#29275F"/>
<path d="M131.204 149.363H119.529C119.409 149.363 119.294 149.312 119.214 149.222C119.134 149.132 119.096 149.012 119.11 148.892L119.734 143.56C119.759 143.348 119.939 143.187 120.153 143.187H131.369C131.484 143.187 131.593 143.233 131.673 143.316C131.752 143.398 131.795 143.508 131.791 143.622L131.625 148.954C131.619 149.183 131.432 149.363 131.204 149.363ZM120.004 148.52H130.795L130.935 144.032H120.53L120.004 148.52Z" fill="#29275F"/>
<path d="M151.36 149.363H139.686C139.458 149.363 139.271 149.182 139.264 148.955L139.097 143.623C139.094 143.508 139.137 143.398 139.217 143.316C139.296 143.233 139.405 143.187 139.519 143.187H150.735C150.95 143.187 151.13 143.348 151.155 143.56L151.778 148.893C151.792 149.013 151.754 149.132 151.674 149.222C151.595 149.312 151.48 149.363 151.36 149.363ZM140.095 148.52H150.886L150.361 144.032H139.955L140.095 148.52Z" fill="#29275F"/>
<path d="M171.516 149.363H159.841C159.637 149.363 159.462 149.217 159.426 149.016L158.47 143.684C158.448 143.561 158.481 143.435 158.561 143.339C158.642 143.243 158.76 143.187 158.885 143.187H170.101C170.292 143.187 170.46 143.316 170.509 143.501L171.923 148.834C171.957 148.961 171.93 149.096 171.85 149.199C171.77 149.303 171.647 149.363 171.516 149.363ZM160.195 148.52H170.967L169.776 144.032H159.389L160.195 148.52Z" fill="#29275F"/>
<path d="M191.672 149.363H179.998C179.816 149.363 179.654 149.246 179.597 149.073L177.85 143.741C177.808 143.612 177.83 143.472 177.909 143.362C177.989 143.253 178.116 143.187 178.251 143.187H189.467C189.638 143.187 189.791 143.29 189.856 143.448L192.061 148.78C192.115 148.91 192.1 149.059 192.022 149.176C191.944 149.293 191.813 149.363 191.672 149.363ZM180.303 148.52H191.04L189.185 144.032H178.833L180.303 148.52Z" fill="#29275F"/>
<path d="M211.828 149.364H200.154C199.991 149.364 199.842 149.27 199.772 149.122L197.235 143.79C197.173 143.66 197.182 143.506 197.26 143.384C197.337 143.261 197.472 143.187 197.616 143.187H208.832C208.985 143.187 209.126 143.269 209.2 143.402L212.195 148.734C212.268 148.865 212.267 149.025 212.191 149.154C212.117 149.284 211.978 149.364 211.828 149.364ZM200.42 148.52H211.107L208.586 144.032H198.285L200.42 148.52Z" fill="#29275F"/>
<path d="M58.102 156.844H46.4279C46.2783 156.844 46.1393 156.764 46.0639 156.635C45.9886 156.506 45.9869 156.346 46.0606 156.215L49.0559 150.883C49.1307 150.751 49.2713 150.668 49.4238 150.668H60.64C60.7846 150.668 60.919 150.742 60.9966 150.865C61.0737 150.987 61.0827 151.14 61.0208 151.271L58.4834 156.604C58.4131 156.75 58.2646 156.844 58.102 156.844ZM47.149 156H57.8354L59.9712 151.512H49.6701L47.149 156Z" fill="#29275F"/>
<path d="M78.2583 156.844H66.5847C66.4435 156.844 66.3125 156.773 66.2337 156.656C66.1555 156.539 66.1409 156.391 66.1943 156.261L68.3988 150.928C68.464 150.77 68.6182 150.667 68.7886 150.667H80.0048C80.1398 150.667 80.267 150.732 80.3463 150.841C80.4256 150.951 80.4475 151.091 80.4053 151.22L78.6582 156.552C78.6025 156.727 78.4405 156.844 78.2583 156.844ZM67.2153 156H77.9523L79.4227 151.512H69.071L67.2153 156Z" fill="#29275F"/>
<path d="M98.4142 156.844H86.7401C86.609 156.844 86.4852 156.783 86.4059 156.679C86.3261 156.575 86.2991 156.44 86.3322 156.314L87.7469 150.982C87.7959 150.797 87.9635 150.668 88.1547 150.668H99.3704C99.4953 150.668 99.614 150.724 99.6939 150.819C99.7743 150.915 99.8075 151.041 99.7856 151.164L98.8287 156.496C98.7933 156.697 98.6184 156.844 98.4142 156.844ZM87.2891 156H98.0615L98.867 151.512H88.4799L87.2891 156Z" fill="#29275F"/>
<path d="M118.57 156.844H106.896C106.776 156.844 106.661 156.792 106.581 156.702C106.501 156.612 106.462 156.492 106.476 156.373L107.1 151.041C107.125 150.828 107.306 150.668 107.519 150.668H118.735C118.849 150.668 118.958 150.714 119.038 150.796C119.118 150.878 119.16 150.989 119.157 151.103L118.991 156.435C118.985 156.663 118.798 156.844 118.57 156.844ZM107.37 156H118.161L118.301 151.512H107.896L107.37 156Z" fill="#29275F"/>
<path d="M138.726 156.844H127.052C126.825 156.844 126.638 156.662 126.63 156.435L126.465 151.102C126.461 150.988 126.504 150.878 126.583 150.795C126.663 150.713 126.772 150.667 126.886 150.667H138.102C138.316 150.667 138.496 150.828 138.521 151.04L139.145 156.372C139.158 156.492 139.121 156.612 139.041 156.702C138.961 156.792 138.846 156.844 138.726 156.844ZM127.461 156H138.252L137.727 151.512H127.321L127.461 156Z" fill="#29275F"/>
<path d="M158.883 156.844H147.209C147.005 156.844 146.83 156.697 146.794 156.496L145.837 151.164C145.815 151.041 145.849 150.915 145.929 150.819C146.009 150.723 146.127 150.668 146.252 150.668H157.468C157.66 150.668 157.827 150.797 157.876 150.982L159.29 156.314C159.324 156.441 159.297 156.576 159.217 156.679C159.137 156.783 159.013 156.844 158.883 156.844ZM147.561 156H158.334L157.143 151.512H146.756L147.561 156Z" fill="#29275F"/>
<path d="M179.038 156.844H167.365C167.183 156.844 167.02 156.726 166.964 156.553L165.216 151.221C165.174 151.092 165.196 150.951 165.275 150.842C165.355 150.733 165.482 150.668 165.617 150.668H176.833C177.004 150.668 177.157 150.771 177.223 150.929L179.427 156.261C179.481 156.391 179.466 156.54 179.388 156.657C179.311 156.773 179.178 156.844 179.038 156.844ZM167.67 156H178.407L176.552 151.512H166.199L167.67 156Z" fill="#29275F"/>
<path d="M199.194 156.844H187.52C187.358 156.844 187.209 156.75 187.139 156.603L184.601 151.27C184.539 151.14 184.548 150.986 184.626 150.864C184.703 150.741 184.838 150.667 184.982 150.667H196.198C196.351 150.667 196.491 150.749 196.566 150.882L199.561 156.214C199.634 156.345 199.632 156.505 199.557 156.634C199.482 156.764 199.344 156.844 199.194 156.844ZM187.787 156H198.473L195.952 151.512H185.65L187.787 156Z" fill="#29275F"/>
<path d="M218.933 156.844H207.26C207.097 156.844 206.949 156.75 206.879 156.603L204.341 151.27C204.279 151.14 204.288 150.986 204.365 150.864C204.442 150.741 204.577 150.667 204.722 150.667H215.938C216.09 150.667 216.231 150.749 216.305 150.882L219.301 156.214C219.374 156.345 219.373 156.505 219.297 156.634C219.222 156.764 219.084 156.844 218.933 156.844ZM207.527 156H218.213L215.692 151.512H205.39L207.527 156Z" fill="#29275F"/>
<path d="M183.246 22.3561V112.949C183.246 118.339 178.875 122.711 173.484 122.711H96.8759C91.4854 122.711 87.1143 118.339 87.1143 112.949V22.3561C87.1143 16.9657 91.4854 12.5945 96.8759 12.5945H173.484C178.874 12.5945 183.246 16.9657 183.246 22.3561Z" fill="white"/>
<path d="M153.46 18.0828C153.46 19.416 152.379 20.4971 151.046 20.4971C149.713 20.4971 148.632 19.416 148.632 18.0828C148.632 16.7497 149.713 15.6686 151.046 15.6686C152.379 15.6691 153.46 16.7497 153.46 18.0828Z" fill="#88C8FC"/>
<path d="M164.069 18.0828C164.069 19.416 162.988 20.4971 161.654 20.4971C160.321 20.4971 159.24 19.416 159.24 18.0828C159.24 16.7497 160.321 15.6686 161.654 15.6686C162.988 15.6691 164.069 16.7497 164.069 18.0828Z" fill="#508DD2"/>
<path d="M174.677 18.0828C174.677 19.416 173.596 20.4971 172.262 20.4971C170.929 20.4971 169.848 19.416 169.848 18.0828C169.848 16.7497 170.929 15.6686 172.262 15.6686C173.596 15.6686 174.677 16.7497 174.677 18.0828Z" fill="#29275F"/>
<path d="M173.483 123.133H96.8759C91.2604 123.133 86.6924 118.564 86.6924 112.949V22.3561C86.6924 16.7412 91.261 12.1726 96.8759 12.1726H173.484C179.099 12.1726 183.667 16.7412 183.667 22.3561V112.949C183.667 118.564 179.099 123.133 173.483 123.133ZM96.8759 13.0164C91.7256 13.0164 87.5361 17.2064 87.5361 22.3561V112.949C87.5361 118.099 91.7262 122.289 96.8759 122.289H173.484C178.634 122.289 182.824 118.099 182.824 112.949V22.3561C182.824 17.2064 178.634 13.0164 173.484 13.0164H96.8759Z" fill="#29275F"/>
<path d="M183.246 22.778H87.1143C86.8814 22.778 86.6924 22.589 86.6924 22.3561C86.6924 22.1233 86.8814 21.9343 87.1143 21.9343H183.246C183.479 21.9343 183.668 22.1233 183.668 22.3561C183.668 22.589 183.479 22.778 183.246 22.778Z" fill="#29275F"/>
<path d="M120.253 34.6664L109.812 30.2452L99.3716 34.6664V10.0458H120.253V34.6664Z" fill="#508DD2"/>
<path d="M118.491 40.4528H94.2729V66.6085H118.491V40.4528Z" fill="#88C8FC"/>
<path d="M176.087 40.4528H121.834V42.6753H176.087V40.4528Z" fill="#C7C7C7"/>
<path d="M176.087 46.4035H121.834V48.6259H176.087V46.4035Z" fill="#C7C7C7"/>
<path d="M176.087 52.3536H121.834V54.5761H176.087V52.3536Z" fill="#C7C7C7"/>
<path d="M176.087 58.3038H121.834V60.5262H176.087V58.3038Z" fill="#C7C7C7"/>
<path d="M153.189 64.2545H121.834V66.4769H153.189V64.2545Z" fill="#C7C7C7"/>
<path d="M176.087 75.8088H94.2729V78.0312H176.087V75.8088Z" fill="#C7C7C7"/>
<path d="M176.087 81.7589H94.2729V83.9814H176.087V81.7589Z" fill="#C7C7C7"/>
<path d="M176.087 87.7096H94.2729V89.932H176.087V87.7096Z" fill="#C7C7C7"/>
<path d="M176.087 93.6597H94.2729V95.8822H176.087V93.6597Z" fill="#C7C7C7"/>
<path d="M153.189 99.6104H94.2729V101.833H153.189V99.6104Z" fill="#C7C7C7"/>
<path d="M175.752 29.5572H138.084V35.7683H175.752V29.5572Z" fill="#88C8FC"/>
<path d="M137.511 117.054C137.449 117.054 137.387 117.04 137.329 117.012L128.711 112.902C128.5 112.802 128.411 112.55 128.512 112.339C128.612 112.129 128.864 112.041 129.074 112.14L137.511 116.164L145.949 112.14C146.16 112.038 146.41 112.129 146.511 112.339C146.612 112.55 146.522 112.802 146.312 112.902L137.693 117.012C137.635 117.04 137.573 117.054 137.511 117.054Z" fill="#29275F"/>
<path d="M59.6963 46.5379C60.7568 46.5379 61.6166 45.6782 61.6166 44.6176C61.6166 43.557 60.7568 42.6972 59.6963 42.6972C58.6357 42.6972 57.7759 43.557 57.7759 44.6176C57.7759 45.6782 58.6357 46.5379 59.6963 46.5379Z" fill="#AFD4EF"/>
<path d="M68.9731 46.5379C67.9128 46.5379 67.0527 45.6784 67.0527 44.6176C67.0527 43.5573 67.9122 42.6972 68.9731 42.6972C70.034 42.6972 70.8935 43.5573 70.8935 44.6176C70.8935 45.6779 70.0334 46.5379 68.9731 46.5379Z" fill="#AFD4EF"/>
<path d="M59.6963 55.8147C60.7568 55.8147 61.6166 54.9549 61.6166 53.8943C61.6166 52.8337 60.7568 51.9739 59.6963 51.9739C58.6357 51.9739 57.7759 52.8337 57.7759 53.8943C57.7759 54.9549 58.6357 55.8147 59.6963 55.8147Z" fill="#AFD4EF"/>
<path d="M59.6963 65.0914C60.7568 65.0914 61.6166 64.2316 61.6166 63.171C61.6166 62.1105 60.7568 61.2507 59.6963 61.2507C58.6357 61.2507 57.7759 62.1105 57.7759 63.171C57.7759 64.2316 58.6357 65.0914 59.6963 65.0914Z" fill="#AFD4EF"/>
<path d="M59.6963 74.3682C60.7568 74.3682 61.6166 73.5084 61.6166 72.4478C61.6166 71.3872 60.7568 70.5275 59.6963 70.5275C58.6357 70.5275 57.7759 71.3872 57.7759 72.4478C57.7759 73.5084 58.6357 74.3682 59.6963 74.3682Z" fill="#AFD4EF"/>
<path d="M57.7759 81.7246C57.7759 80.6637 58.6354 79.8042 59.6963 79.8042C60.7566 79.8042 61.6166 80.6637 61.6166 81.7246C61.6166 82.7849 60.7566 83.645 59.6963 83.645C58.6354 83.645 57.7759 82.7849 57.7759 81.7246Z" fill="#AFD4EF"/>
<path d="M68.9731 55.8147C67.9128 55.8147 67.0527 54.9552 67.0527 53.8943C67.0527 52.8334 67.9122 51.9739 68.9731 51.9739C70.034 51.9739 70.8935 52.8334 70.8935 53.8943C70.8935 54.9546 70.0334 55.8147 68.9731 55.8147Z" fill="#AFD4EF"/>
<path d="M67.0527 63.171C67.0527 62.1107 67.9122 61.2507 68.9731 61.2507C70.034 61.2507 70.8935 62.1107 70.8935 63.171C70.8935 64.2314 70.0334 65.0914 68.9731 65.0914C67.9122 65.0914 67.0527 64.2314 67.0527 63.171Z" fill="#AFD4EF"/>
<path d="M67.0527 72.4478C67.0527 71.3875 67.9122 70.5275 68.9731 70.5275C70.034 70.5275 70.8935 71.387 70.8935 72.4478C70.8935 73.5087 70.0334 74.3682 68.9731 74.3682C67.9122 74.3682 67.0527 73.5082 67.0527 72.4478Z" fill="#AFD4EF"/>
<path d="M67.0527 81.7246C67.0527 80.6637 67.9122 79.8042 68.9731 79.8042C70.034 79.8042 70.8935 80.6637 70.8935 81.7246C70.8935 82.7849 70.0334 83.645 68.9731 83.645C67.9122 83.645 67.0527 82.7849 67.0527 81.7246Z" fill="#AFD4EF"/>
<path d="M59.6963 92.9211C60.7568 92.9211 61.6166 92.0614 61.6166 91.0008C61.6166 89.9402 60.7568 89.0804 59.6963 89.0804C58.6357 89.0804 57.7759 89.9402 57.7759 91.0008C57.7759 92.0614 58.6357 92.9211 59.6963 92.9211Z" fill="#AFD4EF"/>
<path d="M67.0527 91.0008C67.0527 89.9404 67.9122 89.0804 68.9731 89.0804C70.034 89.0804 70.8935 89.9404 70.8935 91.0008C70.8935 92.0611 70.0334 92.9211 68.9731 92.9211C67.9122 92.9211 67.0527 92.0616 67.0527 91.0008Z" fill="#AFD4EF"/>
<path d="M201.706 46.6296C200.645 46.6296 199.785 45.7696 199.785 44.7093C199.785 43.6489 200.645 42.7889 201.706 42.7889C202.766 42.7889 203.626 43.6489 203.626 44.7093C203.626 45.7696 202.766 46.6296 201.706 46.6296Z" fill="#AFD4EF"/>
<path d="M210.982 46.6296C209.922 46.6296 209.062 45.7696 209.062 44.7093C209.062 43.6489 209.922 42.7889 210.982 42.7889C212.043 42.7889 212.903 43.6489 212.903 44.7093C212.903 45.7696 212.043 46.6296 210.982 46.6296Z" fill="#AFD4EF"/>
<path d="M201.706 55.9064C202.766 55.9064 203.626 55.0466 203.626 53.986C203.626 52.9254 202.766 52.0656 201.706 52.0656C200.645 52.0656 199.785 52.9254 199.785 53.986C199.785 55.0466 200.645 55.9064 201.706 55.9064Z" fill="#AFD4EF"/>
<path d="M201.706 65.1825C202.766 65.1825 203.626 64.3228 203.626 63.2622C203.626 62.2016 202.766 61.3418 201.706 61.3418C200.645 61.3418 199.785 62.2016 199.785 63.2622C199.785 64.3228 200.645 65.1825 201.706 65.1825Z" fill="#AFD4EF"/>
<path d="M201.706 74.4593C202.766 74.4593 203.626 73.5996 203.626 72.539C203.626 71.4784 202.766 70.6186 201.706 70.6186C200.645 70.6186 199.785 71.4784 199.785 72.539C199.785 73.5996 200.645 74.4593 201.706 74.4593Z" fill="#AFD4EF"/>
<path d="M210.982 55.9064C212.043 55.9064 212.903 55.0466 212.903 53.986C212.903 52.9254 212.043 52.0656 210.982 52.0656C209.922 52.0656 209.062 52.9254 209.062 53.986C209.062 55.0466 209.922 55.9064 210.982 55.9064Z" fill="#AFD4EF"/>
<path d="M210.982 65.1825C212.043 65.1825 212.903 64.3228 212.903 63.2622C212.903 62.2016 212.043 61.3418 210.982 61.3418C209.922 61.3418 209.062 62.2016 209.062 63.2622C209.062 64.3228 209.922 65.1825 210.982 65.1825Z" fill="#AFD4EF"/>
<path d="M210.982 74.4593C212.043 74.4593 212.903 73.5996 212.903 72.539C212.903 71.4784 212.043 70.6186 210.982 70.6186C209.922 70.6186 209.062 71.4784 209.062 72.539C209.062 73.5996 209.922 74.4593 210.982 74.4593Z" fill="#AFD4EF"/>
<path d="M192.126 46.309C193.187 46.309 194.046 45.4492 194.046 44.3886C194.046 43.328 193.187 42.4683 192.126 42.4683C191.065 42.4683 190.206 43.328 190.206 44.3886C190.206 45.4492 191.065 46.309 192.126 46.309Z" fill="#AFD4EF"/>
<path d="M192.126 55.5863C193.187 55.5863 194.046 54.7266 194.046 53.666C194.046 52.6054 193.187 51.7456 192.126 51.7456C191.065 51.7456 190.206 52.6054 190.206 53.666C190.206 54.7266 191.065 55.5863 192.126 55.5863Z" fill="#AFD4EF"/>
<path d="M192.126 64.8625C193.187 64.8625 194.046 64.0028 194.046 62.9422C194.046 61.8816 193.187 61.0218 192.126 61.0218C191.065 61.0218 190.206 61.8816 190.206 62.9422C190.206 64.0028 191.065 64.8625 192.126 64.8625Z" fill="#AFD4EF"/>
<path d="M190.206 72.2189C190.206 71.1586 191.066 70.2985 192.126 70.2985C193.186 70.2985 194.046 71.1586 194.046 72.2189C194.046 73.2798 193.186 74.1393 192.126 74.1393C191.066 74.1393 190.206 73.2798 190.206 72.2189Z" fill="#AFD4EF"/>
<path d="M202.836 5.39613C202.836 5.98788 202.357 6.46657 201.766 6.46657H198.977V9.25601C198.977 9.84776 198.498 10.3264 197.907 10.3264C197.611 10.3264 197.344 10.2061 197.149 10.0137C196.957 9.81907 196.836 9.55188 196.836 9.25601V6.46657H194.047C193.455 6.46657 192.977 5.98788 192.977 5.39613C192.977 5.10026 193.097 4.83363 193.289 4.63845C193.484 4.44607 193.751 4.3257 194.047 4.3257H196.836V1.53626C196.836 0.944508 197.315 0.46582 197.906 0.46582C198.202 0.46582 198.469 0.586195 198.664 0.77857C198.856 0.973195 198.977 1.24038 198.977 1.53626V4.3257H201.766C202.358 4.32626 202.836 4.80495 202.836 5.39613Z" fill="#AFD4EF"/>
<path d="M200.558 17.4111C198.699 17.4111 198.697 20.3001 200.558 20.3001C202.418 20.3007 202.42 17.4111 200.558 17.4111Z" fill="#AFD4EF"/>
<path d="M213.817 5.68805C211.958 5.68805 211.955 8.57705 213.817 8.57705C215.676 8.57705 215.679 5.68805 213.817 5.68805Z" fill="#AFD4EF"/>
<path d="M247.642 52.5944C247.642 53.1861 247.163 53.6643 246.572 53.6643H243.782V56.4537C243.782 57.0454 243.304 57.5236 242.713 57.5236C242.417 57.5236 242.15 57.4032 241.955 57.2108C241.762 57.0162 241.642 56.749 241.642 56.4531V53.6637H238.853C238.261 53.6637 237.782 53.185 237.782 52.5938C237.782 52.2979 237.903 52.0313 238.095 51.8361C238.29 51.6438 238.557 51.5234 238.853 51.5234H241.642V48.7339C241.642 48.1422 242.121 47.6641 242.712 47.6641C243.008 47.6641 243.274 47.7844 243.47 47.9768C243.662 48.1714 243.782 48.4386 243.782 48.7345V51.5239H246.572C247.163 51.5245 247.642 52.0032 247.642 52.5944Z" fill="#AFD4EF"/>
<path d="M231.816 61.2659C229.957 61.2659 229.954 64.1549 231.816 64.1549C233.675 64.1554 233.678 61.2659 231.816 61.2659Z" fill="#AFD4EF"/>
<path d="M233.384 40.1198C231.525 40.1198 231.522 43.0088 233.384 43.0088C235.243 43.0088 235.246 40.1198 233.384 40.1198Z" fill="#AFD4EF"/>
<path d="M75.8229 18.0828C75.8229 18.6745 75.3442 19.1532 74.753 19.1532H71.9636V21.9426C71.9636 22.5344 71.4849 23.0131 70.8937 23.0131C70.5978 23.0131 70.3312 22.8927 70.136 22.7003C69.9436 22.5057 69.8233 22.2385 69.8233 21.9426V19.1532H67.0338C66.4421 19.1532 65.9634 18.6745 65.9634 18.0828C65.9634 17.7869 66.0838 17.5203 66.2761 17.3251C66.4708 17.1327 66.7379 17.0123 67.0338 17.0123H69.8233V14.2229C69.8233 13.6311 70.3019 13.153 70.8937 13.153C71.1896 13.153 71.4562 13.2734 71.6514 13.4658C71.8438 13.6604 71.9641 13.9276 71.9641 14.2235V17.0129H74.7536C75.3442 17.0129 75.8229 17.4916 75.8229 18.0828Z" fill="#AFD4EF"/>
<path d="M58.3954 14.5199C56.5363 14.5199 56.5335 17.4089 58.3954 17.4089C60.2544 17.4095 60.2578 14.5199 58.3954 14.5199Z" fill="#AFD4EF"/>
<path d="M78.6358 4.39996C76.7767 4.39996 76.7734 7.28896 78.6358 7.28896C80.4949 7.28896 80.4977 4.39996 78.6358 4.39996Z" fill="#AFD4EF"/>
<path d="M31.8903 63.6126C31.8903 64.2044 31.4116 64.6825 30.8205 64.6825H28.031V67.4719C28.031 68.0637 27.5523 68.5418 26.9606 68.5418C26.6647 68.5418 26.3981 68.4214 26.2029 68.2291C26.0105 68.0344 25.8901 67.7672 25.8901 67.4714V64.6819H23.1007C22.509 64.6819 22.0303 64.2032 22.0303 63.6121C22.0303 63.3162 22.1506 63.0496 22.343 62.8544C22.5376 62.662 22.8048 62.5416 23.1007 62.5416H25.8901V59.7522C25.8901 59.1604 26.3688 58.6823 26.9606 58.6823C27.2565 58.6823 27.5231 58.8027 27.7183 58.9951C27.9106 59.1897 28.031 59.4569 28.031 59.7527V62.5422H30.8205C31.4122 62.5422 31.8903 63.0209 31.8903 63.6126Z" fill="#AFD4EF"/>
<path d="M14.0606 60.3011C12.2015 60.3011 12.1982 63.1901 14.0606 63.1901C15.9197 63.1901 15.9225 60.3011 14.0606 60.3011Z" fill="#AFD4EF"/>
</svg>
